<svg width="30" height="30" xmlns="http://www.w3.org/2000/svg" version="1.2" baseProfile="tiny-ps">
 <g id="Layer_1">
  <title>Layer 1</title>
  <g stroke="null">
   <g stroke="null" id="svg_1">
    <title stroke="null">Layer 1</title>
    <g stroke="null" id="svg_2">
     <title stroke="null">pax-gold-logo@logotyp</title>
     <g stroke="null" id="Layer">
      <path stroke="null" fill="#efe812" d="m8.39893,4.21811c-5.0197,5.97577 -6.32163,13.78116 -3.10512,18.0601c0.41773,1.0476 0.98862,2.02881 1.68484,2.89936c-4.9849,-0.84841 -8.33369,-3.54857 -5.33997,-10.6531c2.61777,-6.16021 0.29241,-12.23188 8.27103,-11.96629c-0.47342,0.46479 -0.96774,1.01071 -1.51079,1.65994" class="s0" id="svg_4"/>
      <path stroke="null" fill="#ede70a" d="m27.59357,11.78742c1.98421,3.50431 1.96333,7.30372 -2.3184,9.244c-7.63051,3.46005 -8.08305,10.27685 -15.30279,6.60286c-1.14875,-0.5902 -2.16523,-1.42386 -2.9798,-2.45671c1.47597,0.2287 2.96588,0.33936 4.45577,0.32461c2.5551,0.02951 5.06148,-0.723 7.21974,-2.16161c1.85889,-1.18777 3.51588,-2.69279 4.89439,-4.46338c1.72661,-2.10259 3.08423,-4.50765 4.03108,-7.09715" class="s1" id="svg_3"/>
      <path stroke="null" fill="#ede70a" d="m18.66113,4.69027c-2.30447,-1.27631 -5.22161,-1.91077 -8.27103,-2.10259l-0.47342,-0.02214c2.20003,-2.15422 4.73426,-2.84034 7.62355,-0.723c2.34624,1.72634 4.78995,1.91815 7.91596,2.51572c2.84055,0.54594 3.44626,3.57071 2.14434,7.42913c-1.47597,-2.48621 -3.52285,-4.53716 -5.94567,-5.97577c-0.92596,-0.54594 -1.93548,-0.91481 -2.9798,-1.114" class="s1" id="Layer"/>
      <path stroke="null" fill="#dec21c" d="m8.39893,4.21811c0.54304,-0.64922 1.03736,-1.1804 1.52471,-1.65256l0.47342,0.02214c3.0355,0.19181 5.94567,0.81152 8.27103,2.10259c-4.48362,-0.87055 -9.9489,1.20253 -12.6711,5.97577c-1.95636,3.53382 -2.21396,7.8349 -0.69621,11.60479c-3.23043,-4.27895 -1.92851,-12.08433 3.09119,-18.0601" class="s2" id="Layer"/>
      <path stroke="null" fill="#e5cb22" d="m21.64789,5.80427c2.42979,1.43861 4.4697,3.49694 5.94567,5.98315c-0.93989,2.59687 -2.30447,4.99456 -4.03108,7.09715c-1.37851,1.7706 -3.0355,3.27561 -4.89439,4.46338c3.126,-2.0657 5.04756,-5.6733 5.08236,-9.55386c0,-4.52978 -2.02599,-7.39962 -5.08236,-9.08907c1.04432,0.19181 2.04687,0.56069 2.9798,1.09925" class="s3" id="Layer"/>
      <path stroke="null" fill="#cca727" d="m23.75742,13.78672c-0.03481,3.88794 -1.95636,7.49553 -5.08236,9.55386c-2.15826,1.43861 -4.66464,2.19111 -7.21974,2.16161c-1.4899,0.01475 -2.9798,-0.09591 -4.45577,-0.32461c-0.69621,-0.87055 -1.26711,-1.85175 -1.68484,-2.89936c-1.52471,-3.7699 -1.26711,-8.08573 0.69621,-11.61956c2.7222,-4.75111 8.18052,-6.82418 12.6711,-5.95364c3.05638,1.68945 5.08236,4.55929 5.08236,9.08907l-0.00696,-0.00738l0,0.00001zm-5.5906,7.39962c3.45322,-2.32391 3.91968,-6.8537 2.21396,-10.77114c-1.7475,-4.02074 -6.54442,-5.12736 -10.29005,-2.33129c-3.34183,2.48621 -4.44881,7.15617 -2.21396,10.77114c2.22092,3.60022 6.85772,4.64782 10.29005,2.33129z" class="s4" fill-rule="evenodd" id="Layer"/>
     </g>
    </g>
   </g>
  </g>
 </g>

</svg>